<svg width="618" height="95" viewBox="0 0 618 95" fill="none" xmlns="http://www.w3.org/2000/svg">
<path d="M25.125 93.125V18.625H0V0H72.75V18.625H47.5V93.125H25.125Z" fill="#005872"/>
<path d="M75.75 93.125V0.625007H94.25V93.125H75.75Z" fill="#005872"/>
<path d="M100.125 93.125V0H124.25L139 40.25C140.875 45.625 142.375 51.5 144.125 57.125H144.75C146.625 51.5 148.125 45.625 149.875 40.25L164.125 0H188.375V93.125H168V61.25C168 52 169.75 38.125 171 29H170.375L162.625 51.25L150.125 85.25H137.875L125.25 51.25L117.75 29H117.25C118.375 38.125 120.125 52 120.125 61.25V93.125H100.125Z" fill="#005872"/>
<path d="M193.75 93.125V0.625007H250.5V16H212.25V37.375H244.625V53H212.25V77.625H251.875V93.125H193.75Z" fill="#005872"/>
<path d="M255.125 93.125V0H289.25C309.125 0 325.625 6.875 325.625 29.375C325.625 51.25 309.125 60.375 289.25 60.375H277.5V93.125H255.125ZM277.5 42.75H287.5C298.125 42.75 303.875 38.125 303.875 29.375C303.875 20.625 298.125 17.75 287.5 17.75H277.5V42.75ZM305.375 93.125L285.25 54.625L300.375 40L330.375 93.125H305.375Z" fill="#005872"/>
<path d="M357.983 94.469C347.903 94.469 339.839 90.149 334.175 83.909L337.823 79.973C342.815 85.637 350.111 89.285 358.079 89.285C368.447 89.285 374.879 83.813 374.879 75.845C374.879 67.301 369.311 64.709 362.399 61.637L352.031 57.029C345.791 54.245 337.823 49.829 337.823 39.461C337.823 29.093 346.559 21.893 358.559 21.893C366.911 21.893 373.823 25.637 378.239 30.341L374.975 34.085C370.847 29.957 365.375 27.077 358.559 27.077C349.535 27.077 343.679 31.781 343.679 38.981C343.679 47.045 350.495 49.925 355.583 52.133L365.951 56.741C374.015 60.293 380.639 64.709 380.639 75.365C380.639 86.213 371.807 94.469 357.983 94.469Z" fill="#005872"/>
<path d="M395.238 93.125V23.141H400.902V53.477H437.286V23.141H443.047V93.125H437.286V58.565H400.902V93.125H395.238Z" fill="#005872"/>
<path d="M453.891 93.125L478.371 23.141H484.323L508.803 93.125H502.755L489.123 52.421C486.339 44.165 484.035 36.773 481.539 28.325H481.155C478.659 36.869 476.259 44.165 473.475 52.421L459.747 93.125H453.891ZM465.411 69.701V64.997H496.995V69.701H465.411Z" fill="#005872"/>
<path d="M519.832 93.125V23.141H540.184C554.2 23.141 563.512 28.325 563.512 41.861C563.512 54.917 554.2 61.541 540.184 61.541H525.496V93.125H519.832ZM525.496 56.837H538.936C550.936 56.837 557.656 51.941 557.656 41.861C557.656 31.685 550.936 28.037 538.936 28.037H525.496V56.837ZM558.52 93.125L538.936 60.005L544.12 57.893L565.048 93.125H558.52Z" fill="#005872"/>
<path d="M578.239 93.125V23.141H616.927V28.133H583.903V53.573H611.646V58.565H583.903V88.229H617.982V93.125H578.239Z" fill="#005872"/>
</svg>
